<mxfile host="app.diagrams.net" agent="Mozilla/5.0 (Windows NT 10.0; Win64; x64) AppleWebKit/537.36 (KHTML, like Gecko) Chrome/133.0.0.0 Safari/537.36" version="26.0.16">
  <diagram name="Trang-1" id="ozDjnl27PBsFw96iussz">
    <mxGraphModel dx="472" dy="737" grid="1" gridSize="10" guides="1" tooltips="1" connect="1" arrows="1" fold="1" page="1" pageScale="1" pageWidth="827" pageHeight="1169" math="0" shadow="0">
      <root>
        <mxCell id="0" />
        <mxCell id="1" parent="0" />
        <mxCell id="EGbtAQNga5v2opqgn3vT-21" value="user" style="swimlane;childLayout=stackLayout;horizontal=1;startSize=50;horizontalStack=0;rounded=1;fontSize=14;fontStyle=0;strokeWidth=2;resizeParent=0;resizeLast=1;shadow=0;dashed=0;align=center;arcSize=4;whiteSpace=wrap;html=1;" parent="1" vertex="1">
          <mxGeometry x="330" y="190" width="160" height="190" as="geometry" />
        </mxCell>
        <mxCell id="EGbtAQNga5v2opqgn3vT-22" value="userId&amp;nbsp;&lt;div&gt;fistname&lt;/div&gt;&lt;div&gt;lastname:&lt;/div&gt;&lt;div&gt;DOB :&lt;/div&gt;&lt;div&gt;gender :&amp;nbsp;&lt;/div&gt;&lt;div&gt;email&lt;br&gt;address :&lt;/div&gt;&lt;div&gt;bio:&lt;br&gt;&lt;br&gt;&lt;/div&gt;" style="align=left;strokeColor=none;fillColor=none;spacingLeft=4;spacingRight=4;fontSize=12;verticalAlign=top;resizable=0;rotatable=0;part=1;html=1;whiteSpace=wrap;" parent="EGbtAQNga5v2opqgn3vT-21" vertex="1">
          <mxGeometry y="50" width="160" height="140" as="geometry" />
        </mxCell>
        <mxCell id="2HlG75_2QGR-WZqsKz7K-5" value="message" style="swimlane;childLayout=stackLayout;horizontal=1;startSize=50;horizontalStack=0;rounded=1;fontSize=14;fontStyle=0;strokeWidth=2;resizeParent=0;resizeLast=1;shadow=0;dashed=0;align=center;arcSize=4;whiteSpace=wrap;html=1;" vertex="1" parent="1">
          <mxGeometry x="280" y="480" width="160" height="150" as="geometry" />
        </mxCell>
        <mxCell id="2HlG75_2QGR-WZqsKz7K-6" value="message id&amp;nbsp;&lt;div&gt;senderid :&lt;/div&gt;&lt;div&gt;rêciverid&lt;br&gt;nội dung user with : [2,...]&amp;nbsp;&lt;/div&gt;" style="align=left;strokeColor=none;fillColor=none;spacingLeft=4;spacingRight=4;fontSize=12;verticalAlign=top;resizable=0;rotatable=0;part=1;html=1;whiteSpace=wrap;" vertex="1" parent="2HlG75_2QGR-WZqsKz7K-5">
          <mxGeometry y="50" width="160" height="100" as="geometry" />
        </mxCell>
        <mxCell id="2HlG75_2QGR-WZqsKz7K-7" value="&lt;p data-pm-slice=&quot;1 1 []&quot;&gt;nội dung tin nhắn của user với 1 ng&amp;nbsp;&lt;/p&gt;" style="swimlane;childLayout=stackLayout;horizontal=1;startSize=50;horizontalStack=0;rounded=1;fontSize=14;fontStyle=0;strokeWidth=2;resizeParent=0;resizeLast=1;shadow=0;dashed=0;align=center;arcSize=4;whiteSpace=wrap;html=1;" vertex="1" parent="1">
          <mxGeometry x="290" y="720" width="160" height="120" as="geometry" />
        </mxCell>
        <mxCell id="2HlG75_2QGR-WZqsKz7K-8" value="userid&amp;nbsp;&lt;br&gt;messid&lt;br&gt;&lt;span style=&quot;background-color: transparent; color: light-dark(rgb(0, 0, 0), rgb(255, 255, 255));&quot;&gt;listtinnhan: [ noidungtin]&amp;nbsp;&lt;/span&gt;" style="align=left;strokeColor=none;fillColor=none;spacingLeft=4;spacingRight=4;fontSize=12;verticalAlign=top;resizable=0;rotatable=0;part=1;html=1;whiteSpace=wrap;" vertex="1" parent="2HlG75_2QGR-WZqsKz7K-7">
          <mxGeometry y="50" width="160" height="70" as="geometry" />
        </mxCell>
        <mxCell id="2HlG75_2QGR-WZqsKz7K-9" value="&lt;p data-pm-slice=&quot;1 1 []&quot;&gt;nội dung &lt;/p&gt;&lt;p&gt;thời gian&amp;nbsp;&lt;/p&gt;" style="swimlane;childLayout=stackLayout;horizontal=1;startSize=50;horizontalStack=0;rounded=1;fontSize=14;fontStyle=0;strokeWidth=2;resizeParent=0;resizeLast=1;shadow=0;dashed=0;align=center;arcSize=4;whiteSpace=wrap;html=1;" vertex="1" parent="1">
          <mxGeometry x="270" y="920" width="160" height="120" as="geometry" />
        </mxCell>
        <mxCell id="2HlG75_2QGR-WZqsKz7K-10" value="nội dung&amp;nbsp;&lt;br&gt;thời gian&amp;nbsp;" style="align=left;strokeColor=none;fillColor=none;spacingLeft=4;spacingRight=4;fontSize=12;verticalAlign=top;resizable=0;rotatable=0;part=1;html=1;whiteSpace=wrap;" vertex="1" parent="2HlG75_2QGR-WZqsKz7K-9">
          <mxGeometry y="50" width="160" height="70" as="geometry" />
        </mxCell>
      </root>
    </mxGraphModel>
  </diagram>
</mxfile>
